<svg width="40" height="40" viewBox="0 0 40 40" fill="none" xmlns="http://www.w3.org/2000/svg">
<g clip-path="url(#clip0_6001_3)">
<path d="M2.0899 25.7158V29.4741C2.0899 31.7719 3.94534 33.6347 6.23414 33.6347H33.6074C35.8962 33.6347 37.7516 31.7719 37.7516 29.4741V25.7158H2.0899Z" fill="#F6A230"/>
<path d="M8.6125 18.2323H37.7583C37.7583 11.6783 32.4662 6.36523 25.9382 6.36523H13.9035C7.37554 6.36523 2.08337 11.6783 2.08337 18.2323H6.89347" fill="#F6A230"/>
<path d="M21.2186 25.7157L12.9435 30.2048L4.66833 25.7157H21.2186Z" fill="#FFE285"/>
<path d="M6.89359 18.2323H2.08987C1.45528 18.2323 0.940918 18.7487 0.940918 19.3857C0.940918 20.0228 1.45528 20.5393 2.08987 20.5393C5.06149 20.5393 5.06149 21.9714 8.03312 21.9714C11.0047 21.9714 11.0047 20.5393 13.9764 20.5393C16.9482 20.5393 16.9482 21.9714 19.9199 21.9714C19.9224 21.9714 19.9248 21.9713 19.9273 21.9713C19.9298 21.9713 19.9322 21.9714 19.9347 21.9714C22.9065 21.9714 22.9065 20.5393 25.8783 20.5393C28.8499 20.5393 28.8499 21.9714 31.8215 21.9714C34.7932 21.9714 34.7931 20.5393 37.7648 20.5393C38.3994 20.5393 38.9137 20.0228 38.9137 19.3857C38.9137 18.7487 38.3994 18.2323 37.7648 18.2323H19.9273H8.61246" fill="#08AA6E"/>
<path d="M37.088 20.5679C34.7746 20.7669 34.548 21.9715 31.8215 21.9715C28.85 21.9715 28.85 20.5394 25.8783 20.5394C22.9066 20.5394 22.9066 21.9715 19.9347 21.9715C19.9322 21.9715 19.9298 21.9714 19.9273 21.9714C19.9249 21.9714 19.9224 21.9715 19.9199 21.9715C16.9482 21.9715 16.9482 20.5394 13.9764 20.5394C11.0047 20.5394 11.0047 21.9715 8.03313 21.9715C5.30328 21.9715 5.07948 20.7638 2.75769 20.5672C1.5296 20.7665 0.591614 21.8354 0.591614 23.1247C0.591614 24.5558 1.74718 25.7159 3.17261 25.7159H36.6688C38.0943 25.7159 39.2498 24.5558 39.2498 23.1247C39.2499 21.8368 38.3141 20.7689 37.088 20.5679Z" fill="#D53349"/>
<path d="M39.8416 23.1246C39.8416 22.1996 39.4527 21.3607 38.8179 20.776C39.2353 20.4565 39.5054 19.9524 39.5054 19.3858C39.5054 18.6243 39.0175 17.9753 38.3392 17.7365C38.079 11.0944 32.6166 5.77112 25.9382 5.77112H13.9035C7.22355 5.77112 1.76027 11.0967 1.50215 17.741C0.830761 17.9836 0.349237 18.6292 0.349237 19.3858C0.349237 19.9489 0.616145 20.4503 1.02942 20.7702C0.39118 21.3549 0 22.1962 0 23.1246C0 24.2642 0.59957 25.2653 1.49819 25.8284V29.4741C1.49819 32.0959 3.62271 34.2288 6.23413 34.2288H33.6074C36.2188 34.2288 38.3433 32.0958 38.3433 29.4741V25.8284C39.2421 25.2653 39.8416 24.2642 39.8416 23.1246ZM13.9035 6.95917H25.9382C31.9311 6.95917 36.8425 11.6971 37.1511 17.6381H8.61249L8.61241 18.8263H37.7648C38.0721 18.8263 38.3221 19.0772 38.3221 19.3856C38.3221 19.6942 38.0721 19.9452 37.7648 19.9452C37.5316 19.9452 37.3148 19.954 37.1114 19.9696L37.1108 19.9695L37.0972 19.9706C35.8955 20.0655 35.1796 20.4101 34.5371 20.7197C33.8049 21.0725 33.1727 21.3772 31.8216 21.3772C31.6527 21.3772 31.4951 21.3724 31.3471 21.3635C30.3109 21.3003 29.7468 21.0284 29.1062 20.7197C28.3529 20.3567 27.4989 19.9451 25.8785 19.9451C25.5746 19.9451 25.2977 19.9596 25.0434 19.9855C23.9412 20.0978 23.2628 20.4246 22.6506 20.7197C22.4734 20.8051 22.302 20.8875 22.1248 20.9637C21.5781 21.1986 20.9755 21.3717 19.9777 21.3767C19.9638 21.3767 19.9508 21.3772 19.9367 21.3772L19.9274 21.3771L19.912 21.3772C19.8746 21.3771 19.8398 21.376 19.8035 21.3756C19.7581 21.3749 19.7117 21.3749 19.6678 21.3735C19.6556 21.3731 19.6445 21.3724 19.6324 21.3719C19.099 21.3532 18.6846 21.2828 18.3275 21.18C17.9101 21.0598 17.5697 20.8957 17.2044 20.7197C16.451 20.3567 15.5971 19.9451 13.9765 19.9451C12.356 19.9451 11.5021 20.3566 10.7488 20.7197C10.1081 21.0284 9.54394 21.3003 8.50782 21.3635C8.35982 21.3725 8.20216 21.3772 8.03331 21.3772C6.68219 21.3772 6.04986 21.0725 5.31785 20.7197C4.674 20.4095 3.95631 20.064 2.74985 19.9701L2.73522 19.9689L2.73468 19.9689C2.53384 19.9537 2.32 19.9452 2.09021 19.9452C1.78291 19.9452 1.53297 19.6942 1.53297 19.3856C1.53297 19.0772 1.78291 18.8263 2.09021 18.8263H6.89377L6.89385 17.6381H2.69056C2.9991 11.6972 7.91051 6.95917 13.9035 6.95917ZM18.8786 26.3098L12.9435 29.5296L7.00824 26.3099H18.8786V26.3098ZM37.16 26.3098V27.7103H24.5393V28.8984H37.16V29.4741C37.16 31.4407 35.5663 33.0406 33.6074 33.0406H6.23421C4.27535 33.0406 2.68169 31.4407 2.68169 29.4741V26.3098H3.1727H4.51876L12.9435 30.88L21.3681 26.3098H36.6689H37.16ZM36.6689 25.1217H23.5582L23.5584 25.1216H3.16967C2.0741 25.1199 1.18342 24.2247 1.18342 23.1245C1.18342 22.1628 1.85217 21.35 2.78339 21.1657C3.68761 21.2536 4.23061 21.515 4.80458 21.7914C5.51075 22.1314 6.30533 22.5136 7.73535 22.5606C7.83168 22.5638 7.93082 22.5654 8.03307 22.5654C9.65351 22.5654 10.5074 22.1539 11.2607 21.7909C11.9929 21.438 12.6251 21.1333 13.9763 21.1333C14.3141 21.1333 14.607 21.1524 14.8678 21.1864C14.9982 21.2035 15.1204 21.2243 15.2364 21.2483C15.2943 21.2603 15.3507 21.2731 15.4056 21.2868C15.9 21.4091 16.2803 21.5924 16.6921 21.7909C17.1865 22.0292 17.7242 22.2882 18.4934 22.4382C18.6033 22.4596 18.7179 22.4788 18.8379 22.4954C18.9178 22.5065 19.0001 22.5164 19.0848 22.525C19.3391 22.551 19.616 22.5654 19.9199 22.5654H19.9347C20.2892 22.5654 20.6071 22.5457 20.8952 22.5111C21.883 22.3926 22.5214 22.0992 23.0917 21.8249C23.1154 21.8135 23.139 21.8021 23.1625 21.7908C23.8947 21.438 24.527 21.1333 25.8782 21.1333C26.216 21.1333 26.5089 21.1524 26.7696 21.1864C26.9 21.2035 27.0223 21.2243 27.1382 21.2483C27.1961 21.2603 27.2525 21.2731 27.3075 21.2868C27.8018 21.4091 28.182 21.5924 28.5938 21.7909C29.0883 22.0292 29.6259 22.2882 30.3951 22.4382C30.505 22.4596 30.6196 22.4788 30.7395 22.4954C30.8195 22.5065 30.9018 22.5164 30.9865 22.525C31.2408 22.551 31.5176 22.5654 31.8215 22.5654C31.9228 22.5654 32.021 22.5639 32.1165 22.5606C33.5483 22.5142 34.3433 22.1314 35.05 21.7913C35.6222 21.5159 36.1634 21.2553 37.0621 21.1666C37.9911 21.3524 38.6581 22.1647 38.6581 23.1244C38.6582 24.2257 37.7658 25.1217 36.6689 25.1217Z" fill="#53180F"/>
<path d="M14.9832 8.35962H13.1352V9.54774H14.9832V8.35962Z" fill="#53180F"/>
<path d="M17.9142 10.9481H16.0662V12.1362H17.9142V10.9481Z" fill="#53180F"/>
<path d="M12.0515 10.9481H10.2034V12.1362H12.0515V10.9481Z" fill="#53180F"/>
<path d="M29.638 10.9481H27.7899V12.1362H29.638V10.9481Z" fill="#53180F"/>
<path d="M23.776 10.9481H21.928V12.1362H23.776V10.9481Z" fill="#53180F"/>
<path d="M20.8452 8.35962H18.9971V9.54774H20.8452V8.35962Z" fill="#53180F"/>
<path d="M26.707 8.35962H24.8589V9.54774H26.707V8.35962Z" fill="#53180F"/>
</g>
<defs>
<clipPath id="clip0_6001_3">
<rect width="39.8416" height="40" fill="white"/>
</clipPath>
</defs>
</svg>
